# xmcd
#
# Track frame offsets:
#	150
#	14029
#	29174
#	43812
#	56929
#	69859
#	81534
#	90703
#	99888
#	111363
#	123773
#
# Disc length: 1813 seconds
#
# Revision: 1
# Processed by: cddbd v1.5PL3 Copyright (c) Steve Scherf et al.
# Submitted via: EasyCDDAExtractor 6.5.7.1
#
DISCID=9907130b
DTITLE=Jeremy Scott Echols - Easy Bein' Me
DYEAR=2004
DGENRE=Country
TTITLE0=Easy Bein' Me
TTITLE1=Bankrobber
TTITLE2=Simple Fool
TTITLE3=Inside Out
TTITLE4=Night Music
TTITLE5=Falling Star
TTITLE6=Slo Poke
TTITLE7=Gypsy Heart
TTITLE8=Man on the Moon
TTITLE9=Boots and Shorts
TTITLE10=La Vida Tranquilla
EXTD=
EXTT0=
EXTT1=
EXTT2=
EXTT3=
EXTT4=
EXTT5=
EXTT6=
EXTT7=
EXTT8=
EXTT9=
EXTT10=
PLAYORDER=
